<svg width="388" height="138" viewBox="0 0 388 138" fill="none" xmlns="http://www.w3.org/2000/svg">
<path d="M35.672 72.552C35.608 72.584 35.544 72.6 35.48 72.6C35.416 72.6 35.288 72.6 35.096 72.6C34.648 72.6 34.12 72.52 33.512 72.36C32.936 72.232 32.36 72.056 31.784 71.832C31.24 71.64 30.76 71.416 30.344 71.16C29.96 70.904 29.72 70.68 29.624 70.488C29.592 70.04 29.576 69.576 29.576 69.096C29.576 68.616 29.576 68.152 29.576 67.704C29.576 64.12 29.832 60.376 30.344 56.472C30.888 52.568 31.768 48.344 32.984 43.8C33.112 43.352 33.24 42.792 33.368 42.12C33.528 41.416 33.688 40.664 33.848 39.864C33.08 40.472 32.168 41.448 31.112 42.792C30.056 44.104 28.936 45.672 27.752 47.496C26.6 49.288 25.432 51.272 24.248 53.448C23.096 55.592 22.04 57.784 21.08 60.024C20.12 62.232 19.288 64.424 18.584 66.6C17.912 68.776 17.496 70.792 17.336 72.648C15.8 72.2 14.728 71.752 14.12 71.304C13.544 70.856 13.256 70.312 13.256 69.672C13.256 69.096 13.432 68.28 13.784 67.224C14.136 66.168 14.632 64.92 15.272 63.48C15.912 62.04 16.696 60.44 17.624 58.68C18.552 56.888 19.576 54.968 20.696 52.92C21.976 50.584 23.224 48.392 24.44 46.344C25.688 44.296 26.904 42.44 28.088 40.776C29.272 39.112 30.424 37.672 31.544 36.456C32.696 35.24 33.832 34.312 34.952 33.672C35.4 33.672 35.992 33.784 36.728 34.008C37.496 34.232 38.232 34.504 38.936 34.824C39.672 35.144 40.312 35.48 40.856 35.832C41.432 36.152 41.752 36.424 41.816 36.648C41.368 37.544 40.84 38.888 40.232 40.68C39.624 42.472 39 44.504 38.36 46.776C37.752 49.048 37.16 51.464 36.584 54.024C36.04 56.552 35.608 58.984 35.288 61.32C36.024 59.56 36.872 57.736 37.832 55.848C38.824 53.928 39.864 52.04 40.952 50.184C42.04 48.296 43.144 46.472 44.264 44.712C45.416 42.952 46.536 41.352 47.624 39.912C48.712 38.44 49.72 37.16 50.648 36.072C51.608 34.984 52.456 34.184 53.192 33.672C53.64 33.672 54.232 33.784 54.968 34.008C55.736 34.232 56.472 34.504 57.176 34.824C57.912 35.144 58.552 35.48 59.096 35.832C59.672 36.152 59.992 36.424 60.056 36.648C59.032 38.472 58.136 40.696 57.368 43.32C56.6 45.944 55.944 48.696 55.4 51.576C54.888 54.456 54.488 57.32 54.2 60.168C53.944 62.984 53.816 65.512 53.816 67.752C53.816 68.488 53.816 69.256 53.816 70.056C53.816 70.856 53.848 71.688 53.912 72.552C53.464 72.552 52.92 72.488 52.28 72.36C51.672 72.264 51.064 72.12 50.456 71.928C49.88 71.736 49.352 71.512 48.872 71.256C48.392 71.032 48.056 70.776 47.864 70.488C47.832 70.04 47.816 69.576 47.816 69.096C47.816 68.616 47.816 68.152 47.816 67.704C47.816 64.12 48.072 60.376 48.584 56.472C49.128 52.568 50.008 48.344 51.224 43.8C51.352 43.352 51.496 42.744 51.656 41.976C51.816 41.208 51.976 40.408 52.136 39.576C51.24 40.024 50.216 40.888 49.064 42.168C47.944 43.416 46.792 44.952 45.608 46.776C44.456 48.568 43.304 50.568 42.152 52.776C41.032 54.984 40.008 57.24 39.08 59.544C38.184 61.816 37.416 64.088 36.776 66.36C36.168 68.6 35.8 70.664 35.672 72.552ZM76.2316 49.608C76.5516 49.608 76.9196 49.672 77.3356 49.8C77.7836 49.896 78.1836 50.04 78.5356 50.232C78.8876 50.392 79.1756 50.568 79.3996 50.76C79.6556 50.952 79.7836 51.128 79.7836 51.288C79.1436 52.632 78.5516 53.992 78.0076 55.368C77.4636 56.712 76.9996 58.008 76.6156 59.256C76.2316 60.504 75.9276 61.672 75.7036 62.76C75.5116 63.848 75.4156 64.792 75.4156 65.592C75.4156 66.488 75.5116 67.24 75.7036 67.848C75.8956 68.424 76.2156 68.84 76.6636 69.096C76.2796 69.352 75.7836 69.56 75.1756 69.72C74.5676 69.88 74.0236 69.96 73.5436 69.96C71.8156 69.96 70.9516 68.776 70.9516 66.408C70.9516 64.584 71.5596 62.088 72.7756 58.92C72.1356 60.392 71.3996 61.784 70.5676 63.096C69.7356 64.376 68.8876 65.512 68.0236 66.504C67.1596 67.496 66.2796 68.312 65.3836 68.952C64.5196 69.56 63.7196 69.928 62.9836 70.056C61.7996 69.992 60.8396 69.432 60.1036 68.376C59.3676 67.288 58.9996 65.912 58.9996 64.248C58.9996 62.456 59.3836 60.568 60.1516 58.584C60.9196 56.6 61.8956 54.76 63.0796 53.064C64.2956 51.368 65.6076 49.96 67.0156 48.84C68.4236 47.688 69.7836 47.08 71.0956 47.016C71.4156 47.112 71.7676 47.304 72.1516 47.592C72.5676 47.88 72.9516 48.216 73.3036 48.6C73.6876 48.984 74.0076 49.384 74.2636 49.8C74.5196 50.184 74.6636 50.52 74.6956 50.808C73.4156 51 72.0876 51.624 70.7116 52.68C69.3676 53.736 68.1356 55.016 67.0156 56.52C65.9276 57.992 65.0316 59.576 64.3276 61.272C63.6236 62.968 63.2716 64.552 63.2716 66.024C63.2716 66.632 63.4956 67.016 63.9436 67.176C64.8716 66.984 65.9436 66.2 67.1596 64.824C68.3756 63.416 69.8476 61.256 71.5756 58.344C71.8956 57.768 72.2476 57.128 72.6316 56.424C73.0476 55.72 73.4636 54.984 73.8796 54.216C74.2956 53.448 74.6956 52.68 75.0796 51.912C75.4956 51.112 75.8796 50.344 76.2316 49.608ZM81.0665 68.04C81.2265 67.112 81.4985 65.896 81.8825 64.392C82.2985 62.856 82.7785 61.24 83.3225 59.544C83.8665 57.816 84.4425 56.088 85.0505 54.36C85.6585 52.632 86.2505 51.08 86.8265 49.704C87.2425 48.712 87.6105 47.944 87.9305 47.4C88.2505 46.824 88.6025 46.344 88.9865 45.96C89.4345 46.024 89.8985 46.136 90.3785 46.296C90.8585 46.456 91.3225 46.648 91.7705 46.872C92.2185 47.096 92.6185 47.336 92.9705 47.592C93.3225 47.816 93.5945 48.04 93.7865 48.264C92.9225 49.288 92.1545 50.456 91.4825 51.768C90.8425 53.08 90.1865 54.76 89.5145 56.808C91.2425 55.272 92.7625 53.8 94.0745 52.392C95.4185 50.984 96.6665 49.416 97.8185 47.688C98.0105 47.528 98.3465 47.448 98.8265 47.448C99.2745 47.448 99.7065 47.528 100.123 47.688C100.539 47.816 100.827 48.008 100.987 48.264C100.411 49.8 100.123 51.32 100.123 52.824C100.123 54.232 100.331 55.288 100.747 55.992C100.715 56.184 100.491 56.552 100.075 57.096C99.6905 57.64 99.2585 58.152 98.7785 58.632C97.9145 58.184 97.1465 57.576 96.4745 56.808C95.8025 56.008 95.3065 55.144 94.9865 54.216C93.4825 55.272 92.2025 56.312 91.1465 57.336C90.0905 58.328 89.1785 59.448 88.4105 60.696C87.6745 61.912 87.0345 63.32 86.4905 64.92C85.9785 66.52 85.4825 68.424 85.0025 70.632C84.7145 70.6 84.3625 70.488 83.9465 70.296C83.5625 70.136 83.1625 69.928 82.7465 69.672C82.3625 69.416 82.0105 69.144 81.6905 68.856C81.3705 68.568 81.1625 68.296 81.0665 68.04ZM101.626 65.784C101.626 65.496 101.642 65.144 101.674 64.728C101.738 64.28 101.834 63.704 101.962 63C102.09 62.264 102.25 61.384 102.442 60.36C102.666 59.336 102.938 58.104 103.258 56.664C103.322 56.344 103.466 55.832 103.69 55.128C103.914 54.424 104.202 53.688 104.554 52.92C104.938 52.12 105.386 51.352 105.898 50.616C106.442 49.88 107.082 49.336 107.818 48.984C108.362 49.112 109.082 49.448 109.978 49.992C110.874 50.504 111.642 51.224 112.282 52.152C111.546 52.984 110.922 53.816 110.41 54.648C109.93 55.48 109.482 56.344 109.066 57.24C108.682 58.136 108.314 59.064 107.962 60.024C107.642 60.984 107.274 61.992 106.858 63.048C106.506 63.944 106.186 64.872 105.898 65.832C105.61 66.76 105.45 67.576 105.418 68.28C105.418 68.856 105.402 69.256 105.37 69.48C105.37 69.736 105.29 69.864 105.13 69.864C105.002 69.864 104.746 69.784 104.362 69.624C103.978 69.464 103.578 69.224 103.162 68.904C102.778 68.552 102.426 68.12 102.106 67.608C101.786 67.096 101.626 66.488 101.626 65.784ZM110.794 44.952C110.794 44.76 110.842 44.472 110.938 44.088C110.778 43.928 110.634 43.688 110.506 43.368C110.41 43.048 110.362 42.76 110.362 42.504C110.362 42.216 110.394 41.832 110.458 41.352C110.554 40.84 110.666 40.296 110.794 39.72C110.922 39.144 111.082 38.552 111.274 37.944C111.466 37.304 111.658 36.728 111.85 36.216C112.234 36.216 112.698 36.328 113.242 36.552C113.818 36.744 114.394 37.016 114.97 37.368C115.546 37.688 116.074 38.056 116.554 38.472C117.034 38.856 117.402 39.224 117.658 39.576C117.306 39.928 116.842 40.424 116.266 41.064C115.69 41.672 115.13 42.328 114.586 43.032C114.042 43.704 113.546 44.344 113.098 44.952C112.65 45.56 112.362 45.992 112.234 46.248C111.85 46.184 111.514 46.024 111.226 45.768C110.938 45.48 110.794 45.208 110.794 44.952ZM130.106 49.128C129.978 51.112 129.626 52.824 129.05 54.264C128.474 55.672 127.642 56.92 126.554 58.008C125.498 59.064 124.202 60.024 122.666 60.888C121.13 61.752 119.338 62.584 117.29 63.384C117.29 63.576 117.274 63.784 117.242 64.008C117.242 64.2 117.242 64.408 117.242 64.632C117.242 65.048 117.274 65.48 117.338 65.928C117.402 66.376 117.514 66.792 117.674 67.176C117.834 67.56 118.058 67.88 118.346 68.136C118.634 68.36 119.002 68.472 119.45 68.472C120.314 68.472 121.162 68.28 121.994 67.896C122.826 67.512 123.61 67.048 124.346 66.504C125.114 65.928 125.818 65.32 126.458 64.68C127.13 64.008 127.722 63.4 128.234 62.856C128.554 63.144 128.826 63.416 129.05 63.672C127.61 65.592 126.026 67.192 124.298 68.472C122.602 69.72 120.986 70.52 119.45 70.872C117.242 70.616 115.514 69.816 114.266 68.472C113.05 67.096 112.442 65.448 112.442 63.528C112.442 62.216 112.618 60.888 112.97 59.544C113.354 58.168 113.866 56.856 114.506 55.608C115.178 54.328 115.946 53.128 116.81 52.008C117.706 50.888 118.65 49.912 119.642 49.08C120.666 48.248 121.706 47.592 122.762 47.112C123.85 46.632 124.922 46.392 125.978 46.392C127.45 46.584 128.826 47.496 130.106 49.128ZM126.794 50.712C125.93 50.84 125.034 51.192 124.106 51.768C123.178 52.344 122.298 53.112 121.466 54.072C120.666 55.032 119.93 56.152 119.258 57.432C118.586 58.712 118.058 60.088 117.674 61.56C120.234 60.28 122.362 58.712 124.058 56.856C125.754 54.968 126.666 52.92 126.794 50.712ZM163.781 72.552C163.717 72.584 163.653 72.6 163.589 72.6C163.525 72.6 163.397 72.6 163.205 72.6C162.757 72.6 162.229 72.52 161.621 72.36C161.045 72.232 160.469 72.056 159.893 71.832C159.349 71.64 158.869 71.416 158.453 71.16C158.069 70.904 157.829 70.68 157.733 70.488C157.701 70.04 157.685 69.576 157.685 69.096C157.685 68.616 157.685 68.152 157.685 67.704C157.685 64.12 157.941 60.376 158.453 56.472C158.997 52.568 159.877 48.344 161.093 43.8C161.221 43.352 161.349 42.792 161.477 42.12C161.637 41.416 161.797 40.664 161.957 39.864C161.189 40.472 160.277 41.448 159.221 42.792C158.165 44.104 157.045 45.672 155.861 47.496C154.709 49.288 153.541 51.272 152.357 53.448C151.205 55.592 150.149 57.784 149.189 60.024C148.229 62.232 147.397 64.424 146.693 66.6C146.021 68.776 145.605 70.792 145.445 72.648C143.909 72.2 142.837 71.752 142.229 71.304C141.653 70.856 141.365 70.312 141.365 69.672C141.365 69.096 141.541 68.28 141.893 67.224C142.245 66.168 142.741 64.92 143.381 63.48C144.021 62.04 144.805 60.44 145.733 58.68C146.661 56.888 147.685 54.968 148.805 52.92C150.085 50.584 151.333 48.392 152.549 46.344C153.797 44.296 155.013 42.44 156.197 40.776C157.381 39.112 158.533 37.672 159.653 36.456C160.805 35.24 161.941 34.312 163.061 33.672C163.509 33.672 164.101 33.784 164.837 34.008C165.605 34.232 166.341 34.504 167.045 34.824C167.781 35.144 168.421 35.48 168.965 35.832C169.541 36.152 169.861 36.424 169.925 36.648C169.477 37.544 168.949 38.888 168.341 40.68C167.733 42.472 167.109 44.504 166.469 46.776C165.861 49.048 165.269 51.464 164.693 54.024C164.149 56.552 163.717 58.984 163.397 61.32C164.133 59.56 164.981 57.736 165.941 55.848C166.933 53.928 167.973 52.04 169.061 50.184C170.149 48.296 171.253 46.472 172.373 44.712C173.525 42.952 174.645 41.352 175.733 39.912C176.821 38.44 177.829 37.16 178.757 36.072C179.717 34.984 180.565 34.184 181.301 33.672C181.749 33.672 182.341 33.784 183.077 34.008C183.845 34.232 184.581 34.504 185.285 34.824C186.021 35.144 186.661 35.48 187.205 35.832C187.781 36.152 188.101 36.424 188.165 36.648C187.141 38.472 186.245 40.696 185.477 43.32C184.709 45.944 184.053 48.696 183.509 51.576C182.997 54.456 182.597 57.32 182.309 60.168C182.053 62.984 181.925 65.512 181.925 67.752C181.925 68.488 181.925 69.256 181.925 70.056C181.925 70.856 181.957 71.688 182.021 72.552C181.573 72.552 181.029 72.488 180.389 72.36C179.781 72.264 179.173 72.12 178.565 71.928C177.989 71.736 177.461 71.512 176.981 71.256C176.501 71.032 176.165 70.776 175.973 70.488C175.941 70.04 175.925 69.576 175.925 69.096C175.925 68.616 175.925 68.152 175.925 67.704C175.925 64.12 176.181 60.376 176.693 56.472C177.237 52.568 178.117 48.344 179.333 43.8C179.461 43.352 179.605 42.744 179.765 41.976C179.925 41.208 180.085 40.408 180.245 39.576C179.349 40.024 178.325 40.888 177.173 42.168C176.053 43.416 174.901 44.952 173.717 46.776C172.565 48.568 171.413 50.568 170.261 52.776C169.141 54.984 168.117 57.24 167.189 59.544C166.293 61.816 165.525 64.088 164.885 66.36C164.277 68.6 163.909 70.664 163.781 72.552ZM204.341 49.608C204.661 49.608 205.029 49.672 205.445 49.8C205.893 49.896 206.293 50.04 206.645 50.232C206.997 50.392 207.285 50.568 207.509 50.76C207.765 50.952 207.893 51.128 207.893 51.288C207.253 52.632 206.661 53.992 206.117 55.368C205.573 56.712 205.109 58.008 204.725 59.256C204.341 60.504 204.037 61.672 203.813 62.76C203.621 63.848 203.525 64.792 203.525 65.592C203.525 66.488 203.621 67.24 203.813 67.848C204.005 68.424 204.325 68.84 204.773 69.096C204.389 69.352 203.893 69.56 203.285 69.72C202.677 69.88 202.133 69.96 201.653 69.96C199.925 69.96 199.061 68.776 199.061 66.408C199.061 64.584 199.669 62.088 200.885 58.92C200.245 60.392 199.509 61.784 198.677 63.096C197.845 64.376 196.997 65.512 196.133 66.504C195.269 67.496 194.389 68.312 193.493 68.952C192.629 69.56 191.829 69.928 191.093 70.056C189.909 69.992 188.949 69.432 188.213 68.376C187.477 67.288 187.109 65.912 187.109 64.248C187.109 62.456 187.493 60.568 188.261 58.584C189.029 56.6 190.005 54.76 191.189 53.064C192.405 51.368 193.717 49.96 195.125 48.84C196.533 47.688 197.893 47.08 199.205 47.016C199.525 47.112 199.877 47.304 200.261 47.592C200.677 47.88 201.061 48.216 201.413 48.6C201.797 48.984 202.117 49.384 202.373 49.8C202.629 50.184 202.773 50.52 202.805 50.808C201.525 51 200.197 51.624 198.821 52.68C197.477 53.736 196.245 55.016 195.125 56.52C194.037 57.992 193.141 59.576 192.437 61.272C191.733 62.968 191.381 64.552 191.381 66.024C191.381 66.632 191.605 67.016 192.053 67.176C192.981 66.984 194.053 66.2 195.269 64.824C196.485 63.416 197.957 61.256 199.685 58.344C200.005 57.768 200.357 57.128 200.741 56.424C201.157 55.72 201.573 54.984 201.989 54.216C202.405 53.448 202.805 52.68 203.189 51.912C203.605 51.112 203.989 50.344 204.341 49.608ZM220.604 46.584C221.244 46.584 221.98 46.776 222.812 47.16C223.644 47.544 224.38 48.04 225.02 48.648C224.86 47.368 224.652 46.168 224.396 45.048C224.172 43.896 223.82 42.712 223.34 41.496C222.892 40.28 222.284 38.952 221.516 37.512C220.748 36.072 219.788 34.424 218.636 32.568C218.732 32.28 218.94 31.944 219.26 31.56C219.612 31.176 219.996 30.824 220.412 30.504C220.86 30.152 221.308 29.848 221.756 29.592C222.236 29.336 222.684 29.176 223.1 29.112C223.996 30.104 224.844 31.352 225.644 32.856C226.444 34.328 227.148 35.928 227.756 37.656C228.364 39.352 228.828 41.112 229.148 42.936C229.5 44.76 229.676 46.504 229.676 48.168C229.676 49.832 229.484 51.544 229.1 53.304C228.748 55.064 228.236 56.792 227.564 58.488C226.924 60.152 226.172 61.736 225.308 63.24C224.444 64.744 223.5 66.088 222.476 67.272C221.484 68.456 220.444 69.416 219.356 70.152C218.268 70.92 217.18 71.4 216.092 71.592C213.884 71.336 212.188 70.616 211.004 69.432C209.852 68.28 209.276 66.68 209.276 64.632C209.276 63.544 209.436 62.36 209.756 61.08C210.108 59.8 210.556 58.536 211.1 57.288C211.676 56.008 212.332 54.776 213.068 53.592C213.836 52.376 214.636 51.288 215.468 50.328C216.332 49.368 217.196 48.552 218.06 47.88C218.924 47.208 219.772 46.776 220.604 46.584ZM215.708 69.672C216.828 69.288 217.948 68.44 219.068 67.128C220.188 65.816 221.196 64.28 222.092 62.52C222.988 60.728 223.708 58.824 224.252 56.808C224.828 54.76 225.116 52.792 225.116 50.904C225.116 50.36 225.116 50.024 225.116 49.896C225.116 49.768 225.1 49.64 225.068 49.512C224.3 49.832 223.484 50.376 222.62 51.144C221.756 51.912 220.892 52.808 220.028 53.832C219.164 54.824 218.348 55.912 217.58 57.096C216.812 58.28 216.124 59.464 215.516 60.648C214.908 61.832 214.428 62.968 214.076 64.056C213.724 65.144 213.548 66.104 213.548 66.936C213.548 68.536 214.268 69.448 215.708 69.672ZM248.09 49.128C247.962 51.112 247.61 52.824 247.034 54.264C246.458 55.672 245.626 56.92 244.538 58.008C243.482 59.064 242.186 60.024 240.65 60.888C239.114 61.752 237.322 62.584 235.274 63.384C235.274 63.576 235.258 63.784 235.226 64.008C235.226 64.2 235.226 64.408 235.226 64.632C235.226 65.048 235.258 65.48 235.322 65.928C235.386 66.376 235.498 66.792 235.658 67.176C235.818 67.56 236.042 67.88 236.33 68.136C236.618 68.36 236.986 68.472 237.434 68.472C238.298 68.472 239.146 68.28 239.978 67.896C240.81 67.512 241.594 67.048 242.33 66.504C243.098 65.928 243.802 65.32 244.442 64.68C245.114 64.008 245.706 63.4 246.218 62.856C246.538 63.144 246.81 63.416 247.034 63.672C245.594 65.592 244.01 67.192 242.282 68.472C240.586 69.72 238.97 70.52 237.434 70.872C235.226 70.616 233.498 69.816 232.25 68.472C231.034 67.096 230.426 65.448 230.426 63.528C230.426 62.216 230.602 60.888 230.954 59.544C231.338 58.168 231.85 56.856 232.49 55.608C233.162 54.328 233.93 53.128 234.794 52.008C235.69 50.888 236.634 49.912 237.626 49.08C238.65 48.248 239.69 47.592 240.746 47.112C241.834 46.632 242.906 46.392 243.962 46.392C245.434 46.584 246.81 47.496 248.09 49.128ZM244.778 50.712C243.914 50.84 243.018 51.192 242.09 51.768C241.162 52.344 240.282 53.112 239.45 54.072C238.65 55.032 237.914 56.152 237.242 57.432C236.57 58.712 236.042 60.088 235.658 61.56C238.218 60.28 240.346 58.712 242.042 56.856C243.738 54.968 244.65 52.92 244.778 50.712ZM263.382 66.264C263.382 65.112 263.558 63.624 263.91 61.8C264.294 59.944 264.774 57.96 265.35 55.848C265.958 53.704 266.646 51.528 267.414 49.32C268.182 47.08 268.966 44.984 269.766 43.032C270.566 41.08 271.35 39.368 272.118 37.896C272.886 36.424 273.574 35.368 274.182 34.728C274.502 34.76 274.918 34.888 275.43 35.112C275.974 35.304 276.518 35.544 277.062 35.832C277.606 36.12 278.102 36.44 278.55 36.792C278.998 37.112 279.286 37.416 279.414 37.704C278.486 38.536 277.558 39.8 276.63 41.496C275.734 43.16 274.854 45.064 273.99 47.208C273.158 49.352 272.374 51.624 271.638 54.024C270.902 56.392 270.262 58.696 269.718 60.936C269.174 63.176 268.742 65.256 268.422 67.176C268.134 69.096 267.99 70.648 267.99 71.832C267.99 72.376 268.038 72.712 268.134 72.84C267.43 72.808 266.918 72.68 266.598 72.456C266.278 72.264 266.022 72.04 265.83 71.784C265.67 71.56 265.51 71.32 265.35 71.064C265.222 70.84 265.014 70.664 264.726 70.536C264.502 70.44 264.31 70.216 264.15 69.864C263.99 69.512 263.846 69.128 263.718 68.712C263.622 68.264 263.542 67.816 263.478 67.368C263.414 66.92 263.382 66.552 263.382 66.264ZM278.644 50.616C278.484 50.424 278.34 50.024 278.212 49.416C278.084 48.776 278.02 48.232 278.02 47.784C278.852 47.848 279.652 47.912 280.42 47.976C281.188 48.008 281.892 48.04 282.532 48.072C283.012 47.112 283.524 46.168 284.068 45.24C284.644 44.28 285.188 43.416 285.7 42.648C286.244 41.848 286.74 41.176 287.188 40.632C287.668 40.088 288.036 39.736 288.292 39.576C288.612 39.576 289.012 39.64 289.492 39.768C290.004 39.864 290.516 40.008 291.028 40.2C291.54 40.36 292.004 40.536 292.42 40.728C292.836 40.92 293.124 41.112 293.284 41.304C292.324 42.52 291.492 43.656 290.788 44.712C290.116 45.736 289.38 46.92 288.58 48.264C289.22 48.264 289.86 48.248 290.5 48.216C291.172 48.184 291.844 48.136 292.516 48.072C292.676 48.232 292.804 48.44 292.9 48.696C292.996 48.92 293.044 49.16 293.044 49.416C291.476 49.992 289.572 50.312 287.332 50.376C286.532 51.912 285.812 53.448 285.172 54.984C284.564 56.488 284.036 57.944 283.588 59.352C283.172 60.76 282.836 62.088 282.58 63.336C282.356 64.584 282.244 65.704 282.244 66.696C282.244 68.104 282.772 68.888 283.828 69.048C284.788 68.92 285.7 68.68 286.564 68.328C287.428 67.976 288.196 67.528 288.868 66.984C289.06 67.272 289.172 67.512 289.204 67.704C289.012 67.992 288.676 68.328 288.196 68.712C287.748 69.096 287.252 69.464 286.708 69.816C286.164 70.2 285.636 70.52 285.124 70.776C284.612 71.032 284.228 71.176 283.972 71.208C283.172 71.176 282.372 71 281.572 70.68C280.772 70.36 280.036 69.96 279.364 69.48C278.724 69 278.196 68.472 277.78 67.896C277.364 67.288 277.156 66.696 277.156 66.12C277.156 65.352 277.252 64.392 277.444 63.24C277.668 62.056 277.972 60.776 278.356 59.4C278.74 58.024 279.188 56.584 279.7 55.08C280.212 53.576 280.772 52.088 281.38 50.616H278.644Z" fill="#DF979C"/>
<path d="M20.92 110.52C20.28 110.333 19.8333 110.147 19.58 109.96C19.34 109.773 19.22 109.54 19.22 109.26C19.22 109.047 19.28 108.747 19.4 108.36C19.52 107.973 19.6933 107.52 19.92 107C20.16 106.467 20.44 105.88 20.76 105.24C21.0933 104.6 21.4667 103.913 21.88 103.18C21.5333 103.167 21.22 103.16 20.94 103.16C20.6733 103.147 20.4533 103.14 20.28 103.14C20.36 102.94 20.5867 102.767 20.96 102.62C21.3333 102.473 21.8267 102.347 22.44 102.24C22.96 101.373 23.5133 100.547 24.1 99.76C24.7 98.9733 25.3 98.2533 25.9 97.6C26.5 96.9333 27.1 96.3533 27.7 95.86C28.3 95.3533 28.8733 94.9533 29.42 94.66C29.4333 94.5667 29.44 94.4867 29.44 94.42C29.4533 94.3533 29.46 94.3067 29.46 94.28C29.6467 94.28 29.8933 94.3267 30.2 94.42C30.52 94.5133 30.8267 94.6267 31.12 94.76C31.4267 94.8933 31.6933 95.0333 31.92 95.18C32.16 95.3133 32.2933 95.4267 32.32 95.52C31.88 96.2933 31.4467 97.4533 31.02 99C30.5933 100.533 30.24 102.373 29.96 104.52C29.8933 105.053 29.8333 105.66 29.78 106.34C29.74 107.02 29.72 107.78 29.72 108.62C29.72 108.913 29.72 109.213 29.72 109.52C29.72 109.827 29.7333 110.147 29.76 110.48C29.7333 110.493 29.7067 110.5 29.68 110.5C29.6533 110.5 29.6 110.5 29.52 110.5C29.3333 110.5 29.1133 110.467 28.86 110.4C28.62 110.347 28.38 110.273 28.14 110.18C27.9133 110.1 27.7133 110.007 27.54 109.9C27.38 109.793 27.28 109.7 27.24 109.62C27.2267 109.447 27.22 109.273 27.22 109.1C27.22 108.94 27.22 108.767 27.22 108.58C27.22 107.753 27.2467 106.913 27.3 106.06C27.3667 105.207 27.4733 104.327 27.62 103.42C27.4333 103.407 27.1867 103.393 26.88 103.38C26.5733 103.353 26.2267 103.333 25.84 103.32C25.4667 103.307 25.06 103.293 24.62 103.28C24.1933 103.253 23.7733 103.233 23.36 103.22C23.04 103.82 22.74 104.42 22.46 105.02C22.18 105.607 21.94 106.2 21.74 106.8C21.5133 107.44 21.3267 108.08 21.18 108.72C21.0467 109.36 20.96 109.96 20.92 110.52ZM28.64 98.5C28.6933 98.3133 28.7533 98.06 28.82 97.74C28.9 97.4067 28.9733 97.06 29.04 96.7C28.7067 96.82 28.3333 97.04 27.92 97.36C27.52 97.68 27.1 98.08 26.66 98.56C26.2333 99.0267 25.7933 99.56 25.34 100.16C24.9 100.747 24.4733 101.373 24.06 102.04C25.18 101.947 26.4533 101.887 27.88 101.86C27.9867 101.3 28.1 100.747 28.22 100.2C28.3533 99.64 28.4933 99.0733 28.64 98.5ZM36.507 99.66C36.7737 99.66 37.0804 99.74 37.427 99.9C37.7737 100.06 38.0804 100.267 38.347 100.52C38.2804 99.9867 38.1937 99.4867 38.087 99.02C37.9937 98.54 37.847 98.0467 37.647 97.54C37.4604 97.0333 37.207 96.48 36.887 95.88C36.567 95.28 36.167 94.5933 35.687 93.82C35.727 93.7 35.8137 93.56 35.947 93.4C36.0937 93.24 36.2537 93.0933 36.427 92.96C36.6137 92.8133 36.8004 92.6867 36.987 92.58C37.187 92.4733 37.3737 92.4067 37.547 92.38C37.9204 92.7933 38.2737 93.3133 38.607 93.94C38.9404 94.5533 39.2337 95.22 39.487 95.94C39.7404 96.6467 39.9337 97.38 40.067 98.14C40.2137 98.9 40.287 99.6267 40.287 100.32C40.287 101.013 40.207 101.727 40.047 102.46C39.9004 103.193 39.687 103.913 39.407 104.62C39.1404 105.313 38.827 105.973 38.467 106.6C38.107 107.227 37.7137 107.787 37.287 108.28C36.8737 108.773 36.4404 109.173 35.987 109.48C35.5337 109.8 35.0804 110 34.627 110.08C33.707 109.973 33.0004 109.673 32.507 109.18C32.027 108.7 31.787 108.033 31.787 107.18C31.787 106.727 31.8537 106.233 31.987 105.7C32.1337 105.167 32.3204 104.64 32.547 104.12C32.787 103.587 33.0604 103.073 33.367 102.58C33.687 102.073 34.0204 101.62 34.367 101.22C34.727 100.82 35.087 100.48 35.447 100.2C35.807 99.92 36.1604 99.74 36.507 99.66ZM34.467 109.28C34.9337 109.12 35.4004 108.767 35.867 108.22C36.3337 107.673 36.7537 107.033 37.127 106.3C37.5004 105.553 37.8004 104.76 38.027 103.92C38.267 103.067 38.387 102.247 38.387 101.46C38.387 101.233 38.387 101.093 38.387 101.04C38.387 100.987 38.3804 100.933 38.367 100.88C38.047 101.013 37.707 101.24 37.347 101.56C36.987 101.88 36.627 102.253 36.267 102.68C35.907 103.093 35.567 103.547 35.247 104.04C34.927 104.533 34.6404 105.027 34.387 105.52C34.1337 106.013 33.9337 106.487 33.787 106.94C33.6404 107.393 33.567 107.793 33.567 108.14C33.567 108.807 33.867 109.187 34.467 109.28ZM52.3594 102.86C52.146 102.873 51.886 103.013 51.5794 103.28C51.2727 103.533 50.9394 103.867 50.5794 104.28C50.2327 104.68 49.866 105.127 49.4794 105.62C49.106 106.113 48.7394 106.607 48.3794 107.1C48.0327 107.58 47.706 108.033 47.3994 108.46C47.0927 108.887 46.8327 109.227 46.6194 109.48C46.326 109.36 46.0727 109.187 45.8594 108.96C45.646 108.72 45.4927 108.427 45.3994 108.08C45.466 107.667 45.5594 107.24 45.6794 106.8C45.7994 106.347 45.9527 105.88 46.1394 105.4C46.3394 104.92 46.5794 104.42 46.8594 103.9C47.1527 103.367 47.506 102.807 47.9194 102.22C47.7194 102.233 47.446 102.38 47.0994 102.66C46.7527 102.927 46.3794 103.28 45.9794 103.72C45.5794 104.147 45.166 104.633 44.7394 105.18C44.3127 105.713 43.9127 106.24 43.5394 106.76C43.046 107.453 42.6327 108.06 42.2994 108.58C41.9794 109.1 41.746 109.407 41.5994 109.5C41.2527 109.247 41.0127 108.973 40.8794 108.68C40.746 108.387 40.646 108.06 40.5794 107.7C40.5927 107.38 40.6394 106.98 40.7194 106.5C40.8127 106.02 40.9394 105.527 41.0994 105.02C41.406 104.047 41.7994 103.08 42.2794 102.12C42.7727 101.16 43.246 100.28 43.6994 99.48C44.0727 99.56 44.406 99.6867 44.6994 99.86C45.006 100.033 45.326 100.287 45.6594 100.62C45.526 101.033 45.3194 101.473 45.0394 101.94C44.7594 102.393 44.466 102.873 44.1594 103.38C43.8527 103.887 43.5727 104.407 43.3194 104.94C43.066 105.473 42.8994 106.013 42.8194 106.56C43.1927 106.027 43.6327 105.413 44.1394 104.72C44.6594 104.027 45.186 103.373 45.7194 102.76C46.266 102.147 46.806 101.627 47.3394 101.2C47.8727 100.773 48.3527 100.56 48.7794 100.56C48.9394 100.56 49.1127 100.587 49.2994 100.64C49.486 100.693 49.6594 100.76 49.8194 100.84C49.9794 100.92 50.1127 101 50.2194 101.08C50.326 101.147 50.386 101.2 50.3994 101.24C50.3327 101.507 50.1727 101.873 49.9194 102.34C49.6794 102.793 49.4194 103.273 49.1394 103.78C48.8594 104.287 48.5994 104.78 48.3594 105.26C48.1194 105.727 47.9794 106.1 47.9394 106.38C48.5927 105.487 49.206 104.68 49.7794 103.96C50.3527 103.227 50.8927 102.6 51.3994 102.08C51.906 101.56 52.3727 101.16 52.7994 100.88C53.2394 100.6 53.6527 100.46 54.0394 100.46C54.306 100.46 54.5527 100.533 54.7794 100.68C55.0194 100.813 55.186 101.013 55.2794 101.28C55.1594 101.68 54.9594 102.16 54.6794 102.72C54.4127 103.28 54.1394 103.873 53.8594 104.5C53.5794 105.113 53.326 105.72 53.0994 106.32C52.886 106.92 52.7794 107.46 52.7794 107.94C52.7794 108.22 52.8194 108.407 52.8994 108.5C52.9794 108.58 53.0927 108.62 53.2394 108.62C53.3994 108.62 53.546 108.593 53.6794 108.54C53.826 108.473 53.9327 108.44 53.9994 108.44C54.0794 108.493 54.126 108.56 54.1394 108.64C54.1527 108.72 54.1594 108.793 54.1594 108.86C53.8927 109.073 53.6194 109.247 53.3394 109.38C53.0594 109.527 52.746 109.6 52.3994 109.6C52.0794 109.6 51.8127 109.547 51.5994 109.44C51.3994 109.333 51.2327 109.187 51.0994 109C50.966 108.813 50.8727 108.6 50.8194 108.36C50.766 108.12 50.7394 107.86 50.7394 107.58C50.7394 107.127 50.7994 106.68 50.9194 106.24C51.0394 105.787 51.1794 105.36 51.3394 104.96C51.5127 104.547 51.6927 104.167 51.8794 103.82C52.066 103.46 52.226 103.14 52.3594 102.86ZM56.1123 107.66C56.1123 107.54 56.119 107.393 56.1323 107.22C56.159 107.033 56.199 106.793 56.2523 106.5C56.3057 106.193 56.3723 105.827 56.4523 105.4C56.5457 104.973 56.659 104.46 56.7923 103.86C56.819 103.727 56.879 103.513 56.9723 103.22C57.0657 102.927 57.1857 102.62 57.3323 102.3C57.4923 101.967 57.679 101.647 57.8923 101.34C58.119 101.033 58.3857 100.807 58.6923 100.66C58.919 100.713 59.219 100.853 59.5923 101.08C59.9657 101.293 60.2857 101.593 60.5523 101.98C60.2457 102.327 59.9857 102.673 59.7723 103.02C59.5723 103.367 59.3857 103.727 59.2123 104.1C59.0523 104.473 58.899 104.86 58.7523 105.26C58.619 105.66 58.4657 106.08 58.2923 106.52C58.1457 106.893 58.0123 107.28 57.8923 107.68C57.7723 108.067 57.7057 108.407 57.6923 108.7C57.6923 108.94 57.6857 109.107 57.6723 109.2C57.6723 109.307 57.639 109.36 57.5723 109.36C57.519 109.36 57.4123 109.327 57.2523 109.26C57.0923 109.193 56.9257 109.093 56.7523 108.96C56.5923 108.813 56.4457 108.633 56.3123 108.42C56.179 108.207 56.1123 107.953 56.1123 107.66ZM59.9323 98.98C59.9323 98.9 59.9523 98.78 59.9923 98.62C59.9257 98.5533 59.8657 98.4533 59.8123 98.32C59.7723 98.1867 59.7523 98.0667 59.7523 97.96C59.7523 97.84 59.7657 97.68 59.7923 97.48C59.8323 97.2667 59.879 97.04 59.9323 96.8C59.9857 96.56 60.0523 96.3133 60.1323 96.06C60.2123 95.7933 60.2923 95.5533 60.3723 95.34C60.5323 95.34 60.7257 95.3867 60.9523 95.48C61.1923 95.56 61.4323 95.6733 61.6723 95.82C61.9123 95.9533 62.1323 96.1067 62.3323 96.28C62.5323 96.44 62.6857 96.5933 62.7923 96.74C62.6457 96.8867 62.4523 97.0933 62.2123 97.36C61.9723 97.6133 61.739 97.8867 61.5123 98.18C61.2857 98.46 61.079 98.7267 60.8923 98.98C60.7057 99.2333 60.5857 99.4133 60.5323 99.52C60.3723 99.4933 60.2323 99.4267 60.1123 99.32C59.9923 99.2 59.9323 99.0867 59.9323 98.98ZM64.0589 99.3C64.4056 99.4067 64.7322 99.6467 65.0389 100.02C65.3456 100.38 65.5722 100.78 65.7189 101.22C65.5722 101.58 65.3456 102.013 65.0389 102.52C64.7322 103.027 64.4256 103.547 64.1189 104.08C63.8122 104.6 63.5322 105.1 63.2789 105.58C63.0389 106.047 62.8989 106.433 62.8589 106.74C63.0722 106.513 63.3056 106.253 63.5589 105.96C63.8256 105.653 64.0789 105.353 64.3189 105.06C64.5722 104.753 64.8056 104.48 65.0189 104.24C65.2322 103.987 65.3989 103.8 65.5189 103.68C65.7722 103.413 66.0722 103.107 66.4189 102.76C66.7656 102.4 67.1256 102.067 67.4989 101.76C67.8856 101.44 68.2722 101.173 68.6589 100.96C69.0456 100.733 69.3989 100.62 69.7189 100.62C70.0656 100.62 70.3522 100.74 70.5789 100.98C70.8189 101.207 71.0056 101.447 71.1389 101.7C71.1389 101.727 71.0856 101.767 70.9789 101.82C70.8856 101.86 70.7456 101.987 70.5589 102.2C70.3722 102.44 70.1589 102.773 69.9189 103.2C69.6922 103.613 69.4656 104.067 69.2389 104.56C69.0256 105.04 68.8456 105.533 68.6989 106.04C68.5522 106.547 68.4789 107.007 68.4789 107.42C68.4789 107.753 68.5189 107.967 68.5989 108.06C68.6922 108.153 68.8189 108.2 68.9789 108.2C69.1256 108.2 69.2789 108.167 69.4389 108.1C69.5989 108.033 69.7256 108 69.8189 108C69.8722 108.027 69.9122 108.087 69.9389 108.18C69.9789 108.26 69.9989 108.333 69.9989 108.4C69.8922 108.493 69.7656 108.587 69.6189 108.68C69.4722 108.773 69.3189 108.86 69.1589 108.94C68.9989 109.02 68.8389 109.087 68.6789 109.14C68.5322 109.193 68.3989 109.22 68.2789 109.22C67.8922 109.22 67.5722 109.16 67.3189 109.04C67.0789 108.933 66.8856 108.787 66.7389 108.6C66.6056 108.413 66.5122 108.193 66.4589 107.94C66.4056 107.673 66.3789 107.393 66.3789 107.1C66.3789 106.94 66.3922 106.76 66.4189 106.56C66.4456 106.36 66.4989 106.127 66.5789 105.86C66.6589 105.58 66.7722 105.253 66.9189 104.88C67.0656 104.493 67.2522 104.033 67.4789 103.5C67.4522 103.5 67.2722 103.593 66.9389 103.78C66.6056 103.967 66.2456 104.253 65.8589 104.64C65.2322 105.24 64.6656 105.833 64.1589 106.42C63.6656 107.007 63.1589 107.66 62.6389 108.38C62.3456 108.793 62.0856 109.14 61.8589 109.42C61.6456 109.713 61.4589 109.907 61.2989 110C61.0189 109.84 60.8122 109.613 60.6789 109.32C60.5456 109.04 60.4456 108.747 60.3789 108.44C60.3789 108.187 60.4122 107.867 60.4789 107.48C60.5589 107.093 60.6589 106.667 60.7789 106.2C60.9122 105.72 61.0722 105.22 61.2589 104.7C61.4456 104.18 61.6522 103.66 61.8789 103.14C62.3856 101.967 62.8456 101.047 63.2589 100.38C63.6856 99.7133 63.9522 99.3533 64.0589 99.3ZM90.0853 98.22C90.0853 98.9533 89.8986 99.6533 89.5253 100.32C89.1653 100.987 88.672 101.573 88.0453 102.08C87.432 102.573 86.7053 102.967 85.8653 103.26C85.0386 103.553 84.1586 103.7 83.2253 103.7C82.892 103.7 82.6253 103.66 82.4253 103.58C82.2386 103.487 82.0253 103.313 81.7853 103.06C81.1186 104.513 80.572 105.853 80.1453 107.08C79.732 108.293 79.4053 109.473 79.1653 110.62C78.6586 110.5 78.2453 110.287 77.9253 109.98C77.6053 109.687 77.312 109.313 77.0453 108.86C77.1786 108.607 77.3386 108.273 77.5253 107.86C77.712 107.447 77.9386 106.94 78.2053 106.34C78.472 105.727 78.7786 105 79.1253 104.16C79.4853 103.307 79.9053 102.313 80.3853 101.18C80.5986 100.66 80.7853 100.207 80.9453 99.82C81.1053 99.4333 81.2453 99.0733 81.3653 98.74C81.4853 98.3933 81.592 98.0533 81.6853 97.72C81.792 97.3867 81.8986 97.02 82.0053 96.62C81.3786 96.82 80.7986 97.0533 80.2653 97.32C79.7453 97.5867 79.312 97.8667 78.9653 98.16C78.8453 98.08 78.7186 97.96 78.5853 97.8C78.4653 97.64 78.352 97.4667 78.2453 97.28C78.1386 97.08 78.0453 96.88 77.9653 96.68C77.8853 96.48 77.8386 96.3 77.8253 96.14C78.212 95.8733 78.692 95.6267 79.2653 95.4C79.8386 95.1733 80.452 94.98 81.1053 94.82C81.7586 94.6467 82.432 94.5133 83.1253 94.42C83.832 94.3267 84.5053 94.28 85.1453 94.28C85.9053 94.28 86.592 94.38 87.2053 94.58C87.8186 94.7667 88.3386 95.0333 88.7653 95.38C89.192 95.7267 89.5186 96.14 89.7453 96.62C89.972 97.1 90.0853 97.6333 90.0853 98.22ZM86.5253 95.82C86.0186 95.82 85.4986 95.86 84.9653 95.94L85.2053 96.3C85.072 96.4733 84.9053 96.7333 84.7053 97.08C84.5053 97.4267 84.2853 97.8467 84.0453 98.34C83.8053 98.82 83.5386 99.36 83.2453 99.96C82.9653 100.56 82.6653 101.193 82.3453 101.86C83.3853 101.86 84.332 101.767 85.1853 101.58C86.0386 101.38 86.7653 101.113 87.3653 100.78C87.9786 100.433 88.452 100.033 88.7853 99.58C89.132 99.1267 89.3053 98.64 89.3053 98.12C89.3053 97.4267 89.072 96.8733 88.6053 96.46C88.1386 96.0333 87.4453 95.82 86.5253 95.82ZM95.6291 100.92C95.7624 100.92 95.9157 100.947 96.0891 101C96.2757 101.04 96.4424 101.1 96.5891 101.18C96.7357 101.247 96.8557 101.32 96.9491 101.4C97.0557 101.48 97.1091 101.553 97.1091 101.62C96.8424 102.18 96.5957 102.747 96.3691 103.32C96.1424 103.88 95.9491 104.42 95.7891 104.94C95.6291 105.46 95.5024 105.947 95.4091 106.4C95.3291 106.853 95.2891 107.247 95.2891 107.58C95.2891 107.953 95.3291 108.267 95.4091 108.52C95.4891 108.76 95.6224 108.933 95.8091 109.04C95.6491 109.147 95.4424 109.233 95.1891 109.3C94.9357 109.367 94.7091 109.4 94.5091 109.4C93.7891 109.4 93.4291 108.907 93.4291 107.92C93.4291 107.16 93.6824 106.12 94.1891 104.8C93.9224 105.413 93.6157 105.993 93.2691 106.54C92.9224 107.073 92.5691 107.547 92.2091 107.96C91.8491 108.373 91.4824 108.713 91.1091 108.98C90.7491 109.233 90.4157 109.387 90.1091 109.44C89.6157 109.413 89.2157 109.18 88.9091 108.74C88.6024 108.287 88.4491 107.713 88.4491 107.02C88.4491 106.273 88.6091 105.487 88.9291 104.66C89.2491 103.833 89.6557 103.067 90.1491 102.36C90.6557 101.653 91.2024 101.067 91.7891 100.6C92.3757 100.12 92.9424 99.8667 93.4891 99.84C93.6224 99.88 93.7691 99.96 93.9291 100.08C94.1024 100.2 94.2624 100.34 94.4091 100.5C94.5691 100.66 94.7024 100.827 94.8091 101C94.9157 101.16 94.9757 101.3 94.9891 101.42C94.4557 101.5 93.9024 101.76 93.3291 102.2C92.7691 102.64 92.2557 103.173 91.7891 103.8C91.3357 104.413 90.9624 105.073 90.6691 105.78C90.3757 106.487 90.2291 107.147 90.2291 107.76C90.2291 108.013 90.3224 108.173 90.5091 108.24C90.8957 108.16 91.3424 107.833 91.8491 107.26C92.3557 106.673 92.9691 105.773 93.6891 104.56C93.8224 104.32 93.9691 104.053 94.1291 103.76C94.3024 103.467 94.4757 103.16 94.6491 102.84C94.8224 102.52 94.9891 102.2 95.1491 101.88C95.3224 101.547 95.4824 101.227 95.6291 100.92ZM101.364 99.3C101.71 99.4067 102.037 99.6467 102.344 100.02C102.65 100.38 102.877 100.78 103.024 101.22C102.877 101.58 102.65 102.013 102.344 102.52C102.037 103.027 101.73 103.547 101.424 104.08C101.117 104.6 100.837 105.1 100.584 105.58C100.344 106.047 100.204 106.433 100.164 106.74C100.377 106.513 100.61 106.253 100.864 105.96C101.13 105.653 101.384 105.353 101.624 105.06C101.877 104.753 102.11 104.48 102.324 104.24C102.537 103.987 102.704 103.8 102.824 103.68C103.077 103.413 103.377 103.107 103.724 102.76C104.07 102.4 104.43 102.067 104.804 101.76C105.19 101.44 105.577 101.173 105.964 100.96C106.35 100.733 106.704 100.62 107.024 100.62C107.37 100.62 107.657 100.74 107.884 100.98C108.124 101.207 108.31 101.447 108.444 101.7C108.444 101.727 108.39 101.767 108.284 101.82C108.19 101.86 108.05 101.987 107.864 102.2C107.677 102.44 107.464 102.773 107.224 103.2C106.997 103.613 106.77 104.067 106.544 104.56C106.33 105.04 106.15 105.533 106.004 106.04C105.857 106.547 105.784 107.007 105.784 107.42C105.784 107.753 105.824 107.967 105.904 108.06C105.997 108.153 106.124 108.2 106.284 108.2C106.43 108.2 106.584 108.167 106.744 108.1C106.904 108.033 107.03 108 107.124 108C107.177 108.027 107.217 108.087 107.244 108.18C107.284 108.26 107.304 108.333 107.304 108.4C107.197 108.493 107.07 108.587 106.924 108.68C106.777 108.773 106.624 108.86 106.464 108.94C106.304 109.02 106.144 109.087 105.984 109.14C105.837 109.193 105.704 109.22 105.584 109.22C105.197 109.22 104.877 109.16 104.624 109.04C104.384 108.933 104.19 108.787 104.044 108.6C103.91 108.413 103.817 108.193 103.764 107.94C103.71 107.673 103.684 107.393 103.684 107.1C103.684 106.94 103.697 106.76 103.724 106.56C103.75 106.36 103.804 106.127 103.884 105.86C103.964 105.58 104.077 105.253 104.224 104.88C104.37 104.493 104.557 104.033 104.784 103.5C104.757 103.5 104.577 103.593 104.244 103.78C103.91 103.967 103.55 104.253 103.164 104.64C102.537 105.24 101.97 105.833 101.464 106.42C100.97 107.007 100.464 107.66 99.9436 108.38C99.6503 108.793 99.3903 109.14 99.1636 109.42C98.9503 109.713 98.7636 109.907 98.6036 110C98.3236 109.84 98.1169 109.613 97.9836 109.32C97.8503 109.04 97.7503 108.747 97.6836 108.44C97.6836 108.187 97.7169 107.867 97.7836 107.48C97.8636 107.093 97.9636 106.667 98.0836 106.2C98.2169 105.72 98.3769 105.22 98.5636 104.7C98.7503 104.18 98.9569 103.66 99.1836 103.14C99.6903 101.967 100.15 101.047 100.564 100.38C100.99 99.7133 101.257 99.3533 101.364 99.3ZM116.084 100.72C116.031 101.547 115.884 102.26 115.644 102.86C115.404 103.447 115.058 103.967 114.604 104.42C114.164 104.86 113.624 105.26 112.984 105.62C112.344 105.98 111.598 106.327 110.744 106.66C110.744 106.74 110.738 106.827 110.724 106.92C110.724 107 110.724 107.087 110.724 107.18C110.724 107.353 110.738 107.533 110.764 107.72C110.791 107.907 110.838 108.08 110.904 108.24C110.971 108.4 111.064 108.533 111.184 108.64C111.304 108.733 111.458 108.78 111.644 108.78C112.004 108.78 112.358 108.7 112.704 108.54C113.051 108.38 113.378 108.187 113.684 107.96C114.004 107.72 114.298 107.467 114.564 107.2C114.844 106.92 115.091 106.667 115.304 106.44C115.438 106.56 115.551 106.673 115.644 106.78C115.044 107.58 114.384 108.247 113.664 108.78C112.958 109.3 112.284 109.633 111.644 109.78C110.724 109.673 110.004 109.34 109.484 108.78C108.978 108.207 108.724 107.52 108.724 106.72C108.724 106.173 108.798 105.62 108.944 105.06C109.104 104.487 109.318 103.94 109.584 103.42C109.864 102.887 110.184 102.387 110.544 101.92C110.918 101.453 111.311 101.047 111.724 100.7C112.151 100.353 112.584 100.08 113.024 99.88C113.478 99.68 113.924 99.58 114.364 99.58C114.978 99.66 115.551 100.04 116.084 100.72ZM114.704 101.38C114.344 101.433 113.971 101.58 113.584 101.82C113.198 102.06 112.831 102.38 112.484 102.78C112.151 103.18 111.844 103.647 111.564 104.18C111.284 104.713 111.064 105.287 110.904 105.9C111.971 105.367 112.858 104.713 113.564 103.94C114.271 103.153 114.651 102.3 114.704 101.38ZM116.99 107.72C116.99 107.133 117.13 106.313 117.41 105.26C117.69 104.193 118.084 102.953 118.59 101.54C119.417 99.2867 120.19 97.4133 120.91 95.92C121.644 94.4133 122.357 93.24 123.05 92.4C123.21 92.4267 123.404 92.4933 123.63 92.6C123.87 92.7067 124.104 92.8267 124.33 92.96C124.557 93.08 124.757 93.2067 124.93 93.34C125.117 93.4733 125.237 93.58 125.29 93.66C124.25 94.8867 123.337 96.2067 122.55 97.62C121.764 99.0333 121.044 100.653 120.39 102.48C119.83 104.053 119.404 105.473 119.11 106.74C118.817 107.993 118.67 109.04 118.67 109.88C118.67 110.107 118.67 110.247 118.67 110.3C118.67 110.353 118.677 110.407 118.69 110.46C118.504 110.433 118.344 110.387 118.21 110.32C118.077 110.253 117.99 110.173 117.95 110.08C117.924 110.013 117.85 109.913 117.73 109.78C117.61 109.66 117.504 109.567 117.41 109.5C117.29 109.42 117.19 109.213 117.11 108.88C117.03 108.533 116.99 108.147 116.99 107.72Z" fill="black"/>
</svg>
